<?xml version="1.0" encoding="utf-8"?>
<!-- Generator: Adobe Illustrator 25.2.0, SVG Export Plug-In . SVG Version: 6.00 Build 0)  -->
<svg version="1.1" xmlns="http://www.w3.org/2000/svg" xmlns:xlink="http://www.w3.org/1999/xlink" x="0px" y="0px"
	 viewBox="0 0 118 24" style="enable-background:new 0 0 118 24;" xml:space="preserve">
<style type="text/css">
	.st0{display:none;}
	.st1{display:inline;}
	.st2{fill:#E30619;}
	.st3{fill:#FFFFFF;}
	.st4{opacity:0.95;fill:#600016;}
	.st5{fill:#CA171E;}
</style>
<g id="Layer_2" class="st0">
	<rect class="st1" width="117.9" height="23.8"/>
</g>
<g id="Layer_1">
	<path class="st2" d="M51.3,0.8h-3.8v3.7h3.8V0.8z"/>
	<path class="st2" d="M90.3,1.9h-3.8v3.7h3.8V1.9z"/>
	<path class="st3" d="M89,10.9c0,0.8,0,0.5,0,3c0,2.5-3.7,2.6-3.8,0c0,0,0-6.8,0-6.8h-3.9v3.7h0l0,0.5v2.2c0,1.2-1,2.2-2.2,2.2
		c-7.7,0-14.8,0-14.8,0c-1.6,0-3.4-1.3-3.4-2.8l0-5.9H57l0,6.2c0,1.7,0.7,3.3,1.8,4.5c1.2,1.2,2.8,1.8,4.5,1.8h15.2
		c1.6,0,3.2-0.6,4.4-1.7l0,0c0.8,0.9,2.1,1.6,3.9,1.7c5-0.2,5.9-4.3,5.9-5.1c0-1.2,0-3.6,0-3.6L89,10.9z"/>
	<path class="st2" d="M40.8,20.7h-7.1v3.1h7.1V20.7z"/>
	<path class="st3" d="M54.9,11.3c0-0.1,0-0.1,0-0.2c0-1-0.3-1.9-0.8-2.8c-0.5-0.8-1.2-1.5-2.1-2c-0.9-0.5-1.8-0.7-2.8-0.7
		c-1,0-1.9,0.3-2.8,0.8c-0.8,0.5-1.5,1.2-2,2.1c-0.5,0.9-0.7,1.8-0.6,2.8c0,1,0.3,1.9,0.9,2.7c0.5,0.8,1.3,1.5,2.1,1.9h-2
		c-0.2,0-0.4,0-0.6,0c-0.3,0-1.5-0.4-1.5-2c0-1.4,0-3.4,0-3.4s-2.4,0-3.8,0c0,0.8,0-0.2,0,3.5c-0.1,2.5-3.7,2.6-3.8,0
		c0-0.1,0-12.2,0-13.2V0.8h-3.9l0,4.9v8.5c-0.2,2.6-3.8,2.5-3.8,0c0-1.3,0-2.3,0-3.2h0l0-3.8H27l-3.9,0l-9.8,0
		c-5,0.3-5.5,5.1-5.5,5.1l0,7.4h3.9c0,0,0-6.7,0-6.8c0.2-2.4,3.3-2.5,3.8-0.5c0,0.9,0,1.7,0,2.1c0,0.8,0.9,4.9,5.9,5.1
		c1.6-0.1,2.8-0.7,3.6-1.4c0.9,0.9,2.3,1.7,4.4,1.7c1.7-0.1,2.8-0.7,3.6-1.4c0.8,0.7,2,1.3,3.6,1.4c1.9,0,3.1-0.6,4-1.3
		c0.6,0.6,1.7,1.1,2.9,1.1c4.4,0,5.8,0,5.8,0c2.6-0.1,5.1-1.7,5.3-5.2C54.9,13,54.9,11.3,54.9,11.3z M23.1,13.8
		c-0.2,2.4-3.3,2.5-3.8,0.5c0-0.9,0-1.7,0-2.1c0,0,0-0.1,0-0.1v-1.1h3.8V13.8z M49.4,13.2c-0.4,0-0.8-0.1-1.2-0.4
		c-0.3-0.2-0.6-0.6-0.8-0.9c-0.2-0.4-0.2-0.8-0.1-1.2c0.1-0.4,0.3-0.8,0.6-1.1c0.3-0.3,0.7-0.5,1.1-0.6s0.8,0,1.2,0.1
		c0.4,0.2,0.7,0.4,0.9,0.8c0.2,0.3,0.4,0.7,0.4,1.2c0,0.6-0.2,1.1-0.6,1.5C50.5,13,49.9,13.2,49.4,13.2z"/>
	<path class="st2" d="M73.8,3.4h-8.4v3.7h8.4V3.4z"/>
	<path class="st4" d="M114.1,0v11.2c0,0-0.2,3-8.6,5.5s-8.7,4.9-8.4,7.3c0,0-3.1-1.3-2.1-6.5s11.9-14.1,11.9-14.1S109.4,3.1,114.1,0
		z"/>
	<path class="st5" d="M108.5,0c0,0-13.8,5.5-13.5,11.7S94.8,22.2,95.4,24c0,0,0.5-3.9,2.7-5.1c2.2-1.2,10.6-3.7,10.5-7.6
		S108.5,0,108.5,0z"/>
</g>
</svg>
