<svg xmlns="http://www.w3.org/2000/svg" width="44" height="18"><path fill="#fff" stroke="#fff" d="M0,0.2h4.6v17.5H0V0.2z M14.3,0.2l-1.1,8.2L12.6,4c-0.2-1.4-0.4-2.7-0.5-3.7H6.1v17.5h4l0-11.6l1.7,11.6h2.8
l1.6-11.8l0,11.8h4V0.2H14.3z M27.3,3.4c0.2,0.1,0.3,0.3,0.3,0.5c0.1,0.2,0.1,0.7,0.1,1.5v6.8c0,1.2-0.1,1.9-0.2,2.1
c-0.2,0.3-0.6,0.4-1.2,0.4V3.2C26.8,3.2,27.2,3.3,27.3,3.4z M27.3,17.8c1.1,0,1.9-0.1,2.5-0.2c0.5-0.1,1-0.3,1.4-0.6
c0.4-0.3,0.6-0.7,0.8-1.2c0.1-0.5,0.2-1.6,0.2-3.2V6.4c0-1.7-0.1-2.8-0.2-3.3c-0.1-0.6-0.4-1.1-0.8-1.5c-0.4-0.5-1-0.8-1.8-1
c-0.8-0.2-2-0.3-4.3-0.3h-3.4v17.5L27.3,17.8L27.3,17.8z M39.6,13.5c0,0.8,0,1.4-0.1,1.6c-0.1,0.2-0.5,0.3-0.7,0.3
c-0.3,0-0.5-0.1-0.5-0.3c-0.1-0.2-0.1-0.7-0.1-1.5V9c0-0.8,0-1.3,0.1-1.5c0.1-0.2,0.3-0.3,0.5-0.3c0.3,0,0.7,0.1,0.7,0.3
c0.1,0.2,0.1,0.7,0.1,1.5V13.5z M33.7,0.2v17.5h4.1l0.3-1.1c0.4,0.4,0.8,0.8,1.2,1c0.4,0.2,1.1,0.3,1.6,0.3c0.7,0,1.3-0.2,1.9-0.6
c0.5-0.4,0.9-0.8,1-1.3c0.1-0.5,0.2-1.3,0.2-2.3V8.8c0-1.1,0-1.8-0.1-2.1c0-0.3-0.2-0.7-0.4-1c-0.2-0.3-0.6-0.6-1-0.8
c-0.4-0.2-1-0.3-1.6-0.3c-0.5,0-1.2,0.1-1.6,0.3c-0.4,0.2-0.9,0.5-1.2,0.9V0.2H33.7z"></path></svg>